<svg width="900" height="190" viewBox="0 0 900 190" fill="none" xmlns="http://www.w3.org/2000/svg">
<path d="M35.0807 6.41666C34.0733 6.77203 33.2635 7.58148 32.8882 8.56863C32.6906 9.14117 32.5129 11.2142 32.2956 15.4984C31.861 24.0274 30.9919 40.9866 30.6166 47.9756C30.5178 49.9893 30.34 53.5825 30.2215 55.9714C29.9252 61.8746 29.9252 61.9141 29.2734 62.151C27.3178 62.8815 14.6562 68.7846 14.2809 69.14C13.5895 69.7915 13.4118 70.2061 12.2859 73.7401C11.7328 75.4775 10.2908 79.9986 9.08587 83.809C3.73283 100.551 4.14764 99.0703 4.5822 100.314C4.918 101.281 5.47109 101.953 6.28096 102.427C6.73528 102.663 10.5871 103.572 16.592 104.855C21.866 105.961 26.2314 106.928 26.3302 107.007C26.4092 107.066 25.8956 108.725 25.2043 110.679C21.9648 119.84 21.866 120.156 22.1228 121.261C22.4191 122.485 23.4265 123.67 24.4537 124.006C25.1648 124.243 30.6363 124.183 38.1424 123.848L41.0066 123.729L41.2437 124.302C41.3622 124.618 42.0338 126.473 42.7449 128.428C44.4041 133.028 50.7053 150.461 53.7868 158.931C56.5522 166.532 56.5127 166.453 59.2583 167.657C60.8781 168.348 69.9052 172.376 81.8754 177.726C88.8087 180.846 89.3223 181.043 90.1322 181.043C90.8828 181.023 91.0606 180.964 99.4556 177.193C108.522 173.146 114.646 170.402 118.813 168.565C122.586 166.887 123.495 166.334 123.929 165.486C124.068 165.189 124.7 163.531 125.332 161.794C125.944 160.056 126.971 157.213 127.603 155.476C128.236 153.738 130.606 147.243 132.838 141.064C135.07 134.864 137.421 128.448 138.033 126.77L139.139 123.729L141.727 123.867C143.129 123.927 146.744 124.045 149.727 124.104C155.001 124.243 155.179 124.223 155.969 123.828C157.035 123.275 157.707 122.466 158.023 121.301C158.319 120.235 158.438 120.63 155.317 111.745C154.408 109.198 153.756 107.066 153.835 107.007C153.914 106.928 158.28 105.961 163.554 104.835C168.828 103.73 173.371 102.703 173.648 102.565C174.615 102.051 175.386 101.064 175.623 99.9982C175.84 99.0505 175.801 98.8334 175.149 96.7209C174.418 94.332 170.764 82.8416 169.48 78.8733C169.065 77.5702 168.255 75.0629 167.702 73.286C166.616 69.8705 166.141 69.0413 164.877 68.449C164.541 68.2713 162.033 67.0472 159.307 65.7245C156.601 64.4017 153.46 62.9012 152.354 62.3682C150.793 61.6377 150.319 61.3218 150.24 60.9664C150.181 60.7097 150.082 59.3475 150.023 57.9457C149.964 56.5242 149.786 52.8915 149.628 49.8511C149.47 46.8107 149.253 42.5068 149.134 40.2758C149.035 38.0449 148.897 35.5177 148.838 34.6491C148.779 33.7804 148.601 30.4438 148.443 27.2455C147.672 12.0631 147.514 9.5163 147.337 8.78581C146.942 7.36432 145.243 6.12051 143.682 6.12051C142.813 6.12051 141.786 6.67331 137.282 9.63475C134.734 11.3327 131.258 13.6031 129.579 14.7087C127.9 15.8143 124.522 18.0255 122.073 19.6444C119.623 21.2634 116.127 23.5733 114.27 24.7776C112.433 25.9819 108.641 28.4695 105.875 30.3056C99.2185 34.6886 94.3593 37.8869 91.989 39.4268L90.0532 40.6707L88.4334 39.6243C87.5445 39.032 84.5421 37.0577 81.7767 35.2413C76.878 32.0035 73.1249 29.5356 65.5398 24.5407C57.3621 19.1903 54.1028 17.0384 51.3572 15.2417C49.7769 14.1954 46.2807 11.9052 43.5547 10.1086C40.8486 8.31198 38.2807 6.69305 37.8264 6.49564C36.898 6.06128 36.1276 6.04155 35.0807 6.41666ZM51.4954 24.4222C54.7349 26.5545 58.6262 29.1013 60.1472 30.1082C62.7941 31.8456 66.2706 34.116 75.0607 39.9204C90.0137 49.7524 88.7692 49.0022 89.9544 49.0022C91.1791 49.0022 91.7124 48.7258 96.5914 45.5077C99.0407 43.8887 102.458 41.6578 104.196 40.5127C105.935 39.3676 109.589 36.9787 112.295 35.1821C115.021 33.3855 118.478 31.0953 119.999 30.1082C121.52 29.1013 125.154 26.7124 128.078 24.7973C130.981 22.8823 133.411 21.3423 133.45 21.3818C133.49 21.4213 131.515 25.5673 129.065 30.6215C126.616 35.6559 124.127 40.7496 123.554 41.9539C122.981 43.1385 121.776 45.6261 120.887 47.482C118.754 51.8649 118.596 53.0692 119.959 54.6289C120.571 55.3199 124.226 57.2152 134.813 62.2892C136.018 62.8617 138.764 64.2042 140.937 65.2506C143.11 66.3167 146.487 67.9554 148.443 68.9031C150.398 69.8507 153.835 71.5289 156.067 72.6147L160.137 74.589L161.164 77.8071C161.737 79.584 162.546 82.1111 162.961 83.4141C164.324 87.7181 166.28 93.8581 166.635 95.0032C166.833 95.635 166.932 96.2076 166.853 96.2668C166.793 96.3457 162.428 97.3132 157.193 98.4385C150.951 99.7613 147.356 100.63 146.784 100.906C145.5 101.578 144.907 102.604 144.927 104.105C144.947 105.131 145.263 106.217 146.922 110.857C148.008 113.897 148.858 116.424 148.818 116.464C148.779 116.503 145.875 116.424 142.359 116.306C136.552 116.089 135.88 116.089 135.189 116.385C134.28 116.76 133.233 117.708 132.957 118.438C132.838 118.715 130.922 124.006 128.67 130.205C126.438 136.384 123.021 145.802 121.105 151.113L117.589 160.787L114.547 162.149C112.868 162.899 109.115 164.577 106.172 165.88C103.248 167.183 99.3963 168.921 97.6185 169.711C95.8408 170.52 94.2605 171.171 94.1025 171.171C93.8655 171.171 93.826 170.421 93.826 166.67V162.169L96.6111 158.023C98.1519 155.752 100.305 152.574 101.391 150.955C103.149 148.349 103.386 147.895 103.446 147.006C103.544 145.723 103.07 144.775 102.004 144.183L101.233 143.729H90.0729H78.9125L78.1421 144.183C77.0755 144.775 76.6014 145.723 76.7002 147.006C76.7594 147.895 76.9965 148.349 78.7545 150.955C79.8409 152.574 81.994 155.752 83.5347 158.023L86.3199 162.169V166.67C86.3199 170.165 86.2606 171.171 86.0631 171.171C85.9248 171.171 83.8112 170.283 81.3816 169.177C73.7372 165.762 66.7447 162.643 64.6114 161.695L62.5768 160.787L61.5299 157.944C60.9373 156.364 59.8904 153.442 59.1596 151.429C58.4287 149.415 57.3225 146.355 56.6904 144.617C56.0584 142.88 53.7078 136.384 51.4559 130.205C49.2238 124.006 47.2881 118.715 47.1695 118.418C46.893 117.688 45.6486 116.582 44.7794 116.306C44.2263 116.108 42.7844 116.108 38.6165 116.266C35.6141 116.385 32.7301 116.484 32.1968 116.484H31.2487L32.5326 112.772C35.5351 104.164 35.3968 104.598 35.2585 103.67C35.0807 102.545 34.3499 101.459 33.4215 100.946C32.9869 100.689 30.5573 100.077 27.4561 99.4059C22.1031 98.2608 16.8685 97.1355 14.6562 96.6616C13.9649 96.5037 13.3525 96.326 13.2735 96.2668C13.2142 96.1878 13.313 95.635 13.5105 95.0032C14.3994 92.1208 19.4167 76.4054 19.713 75.5564L20.0488 74.6088L28.8388 70.6602C33.6783 68.4885 37.9054 66.5931 38.2215 66.4549C39.0906 66.0601 43.6535 64.0068 51.4559 60.5123C62.004 55.774 62.2805 55.6556 62.9916 55.1225C64.1966 54.2143 64.7299 52.2993 64.1176 50.8778C63.9003 50.3447 56.3546 38.1238 54.2213 34.8465C53.8658 34.2937 52.5423 32.1615 51.2584 30.1082C49.9744 28.0352 48.1374 25.0935 47.1893 23.5535C45.5103 20.8882 45.3128 20.5329 45.5103 20.5329C45.5695 20.5329 48.2559 22.2702 51.4954 24.4222ZM141.016 30.6018C141.154 33.0499 141.51 40.0586 141.826 46.1789C142.161 52.2993 142.398 57.3534 142.359 57.3929C142.319 57.4324 140.068 56.386 137.361 55.0633C134.655 53.7405 131.436 52.1808 130.211 51.6082C128.275 50.6803 127.999 50.4829 128.097 50.1473C128.157 49.9301 129.302 47.5609 130.606 44.8759C131.91 42.1711 134.3 37.2749 135.9 33.9581C137.5 30.6413 139.198 27.1467 139.673 26.1991L140.542 24.4617L140.68 25.3107C140.739 25.7845 140.897 28.1536 141.016 30.6018ZM47.209 37.9461C51.3769 44.5995 54.8139 50.1868 54.8534 50.3447C54.9127 50.5816 54.3399 50.9172 52.6016 51.6675C51.3177 52.24 48.1769 53.6418 45.6288 54.7869C39.2486 57.6891 37.8857 58.2616 37.7671 58.1629C37.6881 58.0642 37.8066 55.5766 38.6165 40.4732C38.7745 37.5908 39.0116 33.1289 39.1301 30.5425C39.2684 27.976 39.4264 25.8635 39.5054 25.8635C39.5844 25.8635 43.0609 31.3125 47.209 37.9461Z" fill="white"/>
<path d="M52.029 85.5659C51.9105 85.862 55.8413 95.6348 56.908 97.767C57.5993 99.1293 57.224 98.9713 68.8585 102.644C70.5967 103.196 72.177 103.65 72.335 103.65C72.8881 103.65 72.8683 103.157 72.2757 101.36C71.1893 98.1224 69.3918 95.2596 66.6659 92.4167C62.7943 88.3694 58.2314 85.9805 53.2932 85.3882C52.3253 85.2697 52.1278 85.2895 52.029 85.5659Z" fill="white"/>
<path d="M124.641 85.6647C117.925 87.0862 111.92 91.9825 108.463 98.8333C107.594 100.571 106.765 103.137 106.962 103.453C107.16 103.769 107.495 103.71 111.169 102.545C113.085 101.933 116.088 101.005 117.826 100.452C121.224 99.3861 121.797 99.1491 122.29 98.5963C122.903 97.9053 127.88 85.9609 127.722 85.566C127.584 85.2106 126.695 85.2304 124.641 85.6647Z" fill="white"/>
<!-- Diagonal slash — red -->
<path d="M240.974 21.5596L239.944 25.3467L198.429 178.04L197.827 180.253H168.523L169.554 176.466L211.069 23.7725L211.671 21.5596H240.974Z" fill="#DC2626" stroke="#DC2626" stroke-width="6"/>
<!-- STACK text -->
<text x="260" y="152" font-family="'Noto Sans', 'Noto Sans Black', 'Liberation Sans', Arial, sans-serif" font-weight="900" font-size="145" letter-spacing="-2" fill="white">STACK</text>
</svg>
