<svg xmlns="http://www.w3.org/2000/svg" viewBox="0 0 128 128" width="128" height="128">
  <defs>
    <radialGradient id="bgs" cx="50%" cy="30%" r="80%"><stop offset="0%" stop-color="#4c1d95"/><stop offset="100%" stop-color="#0f0a1f"/></radialGradient>
    <linearGradient id="furs" x1="0" y1="0" x2="0" y2="1"><stop offset="0%" stop-color="#312e81"/><stop offset="100%" stop-color="#09000a"/></linearGradient>
    <radialGradient id="eyeglow" cx="50%" cy="50%" r="50%"><stop offset="0%" stop-color="#c4b5fd"/><stop offset="100%" stop-color="#7c3aed"/></radialGradient>
  </defs>
  <rect width="128" height="128" rx="18" fill="url(#bgs)"/>
  <path d="M24 48 L32 14 L56 38 Z" fill="#1e1b4b"/>
  <path d="M104 48 L96 14 L72 38 Z" fill="#1e1b4b"/>
  <path d="M33 42 L36 22 L48 36 Z" fill="#6d28d9"/>
  <path d="M95 42 L92 22 L80 36 Z" fill="#6d28d9"/>
  <path d="M28 70 Q28 36 64 34 Q100 36 100 70 Q100 102 64 106 Q28 102 28 70 Z" fill="url(#furs)"/>
  <path d="M28 72 Q22 78 26 86 Q32 88 34 80 Z" fill="#1e1b4b"/>
  <path d="M100 72 Q106 78 102 86 Q96 88 94 80 Z" fill="#1e1b4b"/>
  <ellipse cx="64" cy="84" rx="24" ry="16" fill="#1f1b3a"/>
  <!-- glowing eyes -->
  <circle cx="48" cy="63" r="12" fill="#7c3aed" opacity="0.35"/>
  <circle cx="80" cy="63" r="12" fill="#7c3aed" opacity="0.35"/>
  <ellipse cx="48" cy="62" rx="7" ry="8" fill="url(#eyeglow)"/>
  <ellipse cx="80" cy="62" rx="7" ry="8" fill="url(#eyeglow)"/>
  <circle cx="48" cy="64" r="2.4" fill="#1e1b4b"/>
  <circle cx="80" cy="64" r="2.4" fill="#1e1b4b"/>
  <path d="M58 78 Q64 74 70 78 Q72 86 64 89 Q56 86 58 78 Z" fill="#0a0515"/>
  <path d="M64 89 L64 95" stroke="#1e1b4b" stroke-width="1.6" stroke-linecap="round"/>
  <path d="M64 95 Q56 99 52 94" stroke="#1e1b4b" stroke-width="1.6" fill="none" stroke-linecap="round"/>
  <path d="M64 95 Q72 99 76 94" stroke="#1e1b4b" stroke-width="1.6" fill="none" stroke-linecap="round"/>
  <!-- subtle moon crescent top-right -->
  <path d="M108 16 A10 10 0 0 0 98 26 A8 8 0 0 1 108 16 Z" fill="#fef3c7" opacity="0.8"/>
</svg>
